HIERARCHY
ROOT hip
{
  OFFSET 0 0 0
  CHANNELS 6 Xposition Yposition Zposition Zrotation Yrotation Xrotation
  JOINT abdomen
  {
    OFFSET 0 20.6881 -0.73152
    CHANNELS 3 Zrotation Xrotation Yrotation
    JOINT chest
    {
      OFFSET 0 11.7043 -0.48768
      CHANNELS 3 Zrotation Xrotation Yrotation
      JOINT neck
      {
        OFFSET 0 22.1894 -2.19456
        CHANNELS 3 Zrotation Xrotation Yrotation
        JOINT head
        {
          OFFSET -0.24384 7.07133 1.2192
          CHANNELS 3 Zrotation Xrotation Yrotation
          JOINT leftEye
          {
            OFFSET 4.14528 8.04674 8.04672
            CHANNELS 3 Zrotation Xrotation Yrotation
            End Site
            {
              OFFSET 1 0 0
            }
          }
          JOINT rightEye
          {
            OFFSET -3.6576 8.04674 8.04672
            CHANNELS 3 Zrotation Xrotation Yrotation
            End Site
            {
              OFFSET 1 0 0
            }
          }
        }
      }
      JOINT rCollar
      {
        OFFSET -2.68224 19.2634 -4.8768
        CHANNELS 3 Zrotation Xrotation Yrotation
        JOINT rShldr
        {
          OFFSET -8.77824 -1.95073 1.46304
          CHANNELS 3 Zrotation Xrotation Yrotation
          JOINT rForeArm
          {
            OFFSET -28.1742 -1.7115 0.48768
            CHANNELS 3 Zrotation Xrotation Yrotation
            JOINT rHand
            {
              OFFSET -22.5879 0.773209 7.07136
              CHANNELS 3 Zrotation Xrotation Yrotation
              JOINT rThumb1
              {
                OFFSET -1.2192 -0.487915 3.41376
                CHANNELS 3 Zrotation Xrotation Yrotation
                JOINT rThumb2
                {
                  OFFSET -3.37035 -0.52449 3.41376
                  CHANNELS 3 Zrotation Xrotation Yrotation
                  End Site
                  {
                    OFFSET -1.78271 -1.18214 1.43049
                  }
                }
              }
              JOINT rIndex1
              {
                OFFSET -7.75947 0.938293 5.60832
                CHANNELS 3 Zrotation Xrotation Yrotation
                JOINT rIndex2
                {
                  OFFSET -2.54057 -0.884171 1.56538
                  CHANNELS 3 Zrotation Xrotation Yrotation
                  End Site
                  {
                    OFFSET -1.62519 -0.234802 1.16502
                  }
                }
              }
              JOINT rMid1
              {
                OFFSET -8.24714 1.18213 3.41376
                CHANNELS 3 Zrotation Xrotation Yrotation
                JOINT rMid2
                {
                  OFFSET -3.10165 -0.590103 1.0647
                  CHANNELS 3 Zrotation Xrotation Yrotation
                  End Site
                  {
                    OFFSET -2.48547 -0.328903 0.83742
                  }
                }
              }
              JOINT rRing1
              {
                OFFSET -8.82822 0.546677 1.51678
                CHANNELS 3 Zrotation Xrotation Yrotation
                JOINT rRing2
                {
                  OFFSET -2.60934 -0.819778 -0.0198488
                  CHANNELS 3 Zrotation Xrotation Yrotation
                  End Site
                  {
                    OFFSET -2.33842 -0.294052 0.168128
                  }
                }
              }
              JOINT rPinky1
              {
                OFFSET -8.27202 -0.0477905 -0.4584
                CHANNELS 3 Zrotation Xrotation Yrotation
                JOINT rPinky2
                {
                  OFFSET -1.82734 -0.647385 -0.700984
                  CHANNELS 3 Zrotation Xrotation Yrotation
                  End Site
                  {
                    OFFSET -1.69225 -0.51767 -0.607171
                  }
                }
              }
            }
          }
        }
      }
      JOINT lCollar
      {
        OFFSET 2.68224 19.2634 -4.8768
        CHANNELS 3 Zrotation Xrotation Yrotation
        JOINT lShldr
        {
          OFFSET 8.77824 -1.95073 1.46304
          CHANNELS 3 Zrotation Xrotation Yrotation
          JOINT lForeArm
          {
            OFFSET 28.1742 -1.7115 0.48768
            CHANNELS 3 Zrotation Xrotation Yrotation
            JOINT lHand
            {
              OFFSET 22.5879 0.773209 7.07136
              CHANNELS 3 Zrotation Xrotation Yrotation
              JOINT lThumb1
              {
                OFFSET 1.2192 -0.487915 3.41376
                CHANNELS 3 Zrotation Xrotation Yrotation
                JOINT lThumb2
                {
                  OFFSET 3.37035 -0.52449 3.41376
                  CHANNELS 3 Zrotation Xrotation Yrotation
                  End Site
                  {
                    OFFSET 1.78271 -1.18214 1.43049
                  }
                }
              }
              JOINT lIndex1
              {
                OFFSET 7.75947 0.938293 5.60832
                CHANNELS 3 Zrotation Xrotation Yrotation
                JOINT lIndex2
                {
                  OFFSET 2.54057 -0.884171 1.56538
                  CHANNELS 3 Zrotation Xrotation Yrotation
                  End Site
                  {
                    OFFSET 1.62519 -0.234802 1.16502
                  }
                }
              }
              JOINT lMid1
              {
                OFFSET 8.24714 1.18213 3.41376
                CHANNELS 3 Zrotation Xrotation Yrotation
                JOINT lMid2
                {
                  OFFSET 3.10165 -0.590103 1.0647
                  CHANNELS 3 Zrotation Xrotation Yrotation
                  End Site
                  {
                    OFFSET 2.48547 -0.328903 0.83742
                  }
                }
              }
              JOINT lRing1
              {
                OFFSET 8.82822 0.546677 1.51678
                CHANNELS 3 Zrotation Xrotation Yrotation
                JOINT lRing2
                {
                  OFFSET 2.60934 -0.819778 -0.0198488
                  CHANNELS 3 Zrotation Xrotation Yrotation
                  End Site
                  {
                    OFFSET 2.33842 -0.294052 0.168128
                  }
                }
              }
              JOINT lPinky1
              {
                OFFSET 8.27202 -0.0477905 -0.4584
                CHANNELS 3 Zrotation Xrotation Yrotation
                JOINT lPinky2
                {
                  OFFSET 1.82734 -0.647385 -0.700984
                  CHANNELS 3 Zrotation Xrotation Yrotation
                  End Site
                  {
                    OFFSET 1.69225 -0.51767 -0.607171
                  }
                }
              }
            }
          }
        }
      }
    }
  }
  JOINT rButtock
  {
    OFFSET -8.77824 4.35084 1.2192
    CHANNELS 3 Zrotation Xrotation Yrotation
    JOINT rThigh
    {
      OFFSET 0 -1.70687 -2.19456
      CHANNELS 3 Zrotation Xrotation Yrotation
      JOINT rShin
      {
        OFFSET 0 -36.8199 0.73152
        CHANNELS 3 Zrotation Xrotation Yrotation
        JOINT rFoot
        {
          OFFSET 0.73152 -45.1104 -5.12064
          CHANNELS 3 Zrotation Xrotation Yrotation
          End Site
          {
            OFFSET -1.1221 -3.69964 12.103
          }
        }
      }
    }
  }
  JOINT lButtock
  {
    OFFSET 8.77824 4.35084 1.2192
    CHANNELS 3 Zrotation Xrotation Yrotation
    JOINT lThigh
    {
      OFFSET 0 -1.70687 -2.19456
      CHANNELS 3 Zrotation Xrotation Yrotation
      JOINT lShin
      {
        OFFSET 0 -36.8199 0.73152
        CHANNELS 3 Zrotation Xrotation Yrotation
        JOINT lFoot
        {
          OFFSET -0.73152 -45.1104 -5.12064
          CHANNELS 3 Zrotation Xrotation Yrotation
          End Site
          {
            OFFSET 1.1221 -3.69964 12.103
          }
        }
      }
    }
  }
}
MOTION
Frames:	4
Frame Time:	0.03333
-2.7154999743654944 58.18800029417192 11.813700142630731 5.51140022277832 18.593303680419922 14.53749942779541 -6.7218098640441895 14.12190055847168 -3.306380033493042 2.353490114212036 -13.941800117492676 -0.8261209726333618 -7.32297945022583 13.474499702453613 -8.624589920043945 8.887689590454102 -29.239700317382812 -14.590797424316406 -0.0 0.0 -0.0 -0.0 0.0 -0.0 -1.5716699724435332e-14 3.907499866208364e-13 -5.103299510408887e-13 51.35340118408203 34.062599182128906 8.738798141479492 -18.767301559448242 -11.535999298095703 35.76509475708008 -0.1615920066833496 11.383599281311035 1.6214599609375 4.0058900641071205e-11 -2.9560900394187684e-09 2.690749845157825e-10 6.952669689974655e-11 -5.101649769301275e-09 4.617269899753751e-10 4.0061298028915004e-11 -2.956099809381385e-09 2.690530020998949e-10 7.730909824371338 5.474879741668701 0.4173140823841095 4.0062595602075035e-11 -2.9561100234332116e-09 2.6908200667641324e-10 2.9055399894714355 0.9651829600334167 0.10290199518203735 4.006349765828254e-11 -2.956099809381385e-09 2.690639933078387e-10 10.27859878540039 0.73180091381073 0.025912316516041756 4.005759959846422e-11 -2.9560900394187684e-09 2.69065991709283e-10 2.221669912338257 -0.733487069606781 -0.208919957280159 -1.5816498840346728e-14 3.907459750727982e-13 -5.104969723855601e-13 -45.82219696044922 42.80019760131836 -36.75499725341797 16.19670295715332 -8.871390342712402 -30.088600158691406 0.009058279916644096 2.714860200881958 -0.38183701038360596 2.057670034361081e-09 5.419659832028856e-09 1.7297500098933938e-09 3.562199868412108e-09 9.370679343589927e-09 2.9853799432544292e-09 2.0576600423538594e-09 5.419649617977029e-09 1.7297500098933938e-09 -7.730909824371338 5.474879741668701 -0.4173140823841095 2.057670034361081e-09 5.4196402921036224e-09 1.7297401289084746e-09 -2.9055399894714355 0.9651829600334167 -0.10290199518203735 2.057670034361081e-09 5.419649617977029e-09 1.7297401289084746e-09 -10.27859878540039 0.73180091381073 -0.025912316516041756 2.0576798043236977e-09 5.419649617977029e-09 1.729729914856648e-09 -2.221669912338257 -0.733487069606781 0.208919957280159 -2.0321699480147914e-16 0.0 -3.8825099822884138e-19 -64.66569519042969 -56.0453987121582 -67.89729309082031 -5.181699275970459 81.22411346435547 6.651749134063721 -8.927949905395508 -8.245169639587402 -27.405597686767578 2.0321699480147914e-16 0.0 3.8825099822884138e-19 12.795499801635742 14.133399963378906 0.7524349689483643 -0.23712898790836334 26.153898239135742 -2.3770697116851807 2.7872695922851562 -6.007750511169434 30.683795928955078
-3.3061999734716143 58.447096690147184 13.1726001087855 4.375999927520752 17.74860191345215 14.387899398803711 -5.711929798126221 14.173702239990234 -2.7590396404266357 2.3024797439575195 -13.751601219177246 -0.632754921913147 -7.236509323120117 13.490399360656738 -8.496920585632324 8.901000022888184 -29.390501022338867 -14.332300186157227 -0.0 0.0 -0.0 -0.0 0.0 -0.0 3.547379742925051e-14 2.765240022638976e-13 -1.5626998935321101e-13 51.42799758911133 33.91880416870117 8.926788330078125 -18.65570068359375 -11.409599304199219 35.50759506225586 -0.16505099833011627 11.501099586486816 1.638659954071045 -6.86410983607999e-10 -8.536380491364071e-10 -2.069410059979404e-10 -1.1883299899650979e-09 -1.4848200446948567e-09 -3.52384982305054e-10 -6.864099844072769e-10 -8.536409912274223e-10 -2.0696901137373658e-10 7.730909824371338 5.474879741668701 0.4173140823841095 -6.864089852065547e-10 -8.536529816360883e-10 -2.069379945179861e-10 2.9055399894714355 0.9651829600334167 0.10290199518203735 -6.864069312939591e-10 -8.536490403443509e-10 -2.069519972058842e-10 10.27859878540039 0.73180091381073 0.025912316516041756 -6.864119272975699e-10 -8.536380491364071e-10 -2.0694999880443987e-10 2.221669912338257 -0.733487069606781 -0.208919957280159 3.5403798626489416e-14 2.765199907158594e-13 -1.5642099161078393e-13 -47.00669860839844 41.55330276489258 -35.86429214477539 15.981700897216797 -8.670109748840332 -29.634199142456055 0.006769869942218065 2.361299991607666 -0.3320460021495819 8.511259474985877e-10 1.9092101233297853e-09 3.9464398415844926e-10 1.4733699815749901e-09 3.2990696841039835e-09 6.788630213527824e-10 8.511109594877553e-10 1.9092101233297853e-09 3.9464898016206007e-10 -7.730909824371338 5.474879741668701 -0.4173140823841095 8.511169546920883e-10 1.909199909277959e-09 3.946369897533941e-10 -2.9055399894714355 0.9651829600334167 -0.10290199518203735 8.511169546920883e-10 1.909199909277959e-09 3.9463596279709634e-10 -10.27859878540039 0.73180091381073 -0.025912316516041756 8.511320537252232e-10 1.9092101233297853e-09 3.946250271003038e-10 -2.221669912338257 -0.733487069606781 0.208919957280159 -2.0321699480147914e-16 0.0 -3.8825099822884138e-19 -60.6443977355957 -56.219207763671875 -65.5365982055664 -4.828110218048096 80.61504364013672 6.221650123596191 -8.91542911529541 -8.517511367797852 -27.051998138427734 2.0321699480147914e-16 0.0 3.8825099822884138e-19 13.731799125671387 11.55630111694336 0.5393901467323303 -0.14548300206661224 32.535003662109375 -2.429969549179077 0.7166249752044678 -1.8704302310943604 29.32019805908203
-3.8350999940806356 58.76760331695003 14.625300130029112 3.02839994430542 16.95090103149414 13.976198196411133 -4.599349498748779 14.446600914001465 -2.204619884490967 2.3022398948669434 -13.543500900268555 -0.4341089725494385 -7.071559906005859 13.499900817871094 -8.368620872497559 8.913161277770996 -29.46280288696289 -14.079399108886719 -0.0 0.0 -0.0 -0.0 0.0 -0.0 1.126859971436675e-13 -1.602520029407234e-16 1.3420399503066144e-13 51.495399475097656 33.78520202636719 9.229718208312988 -18.516498565673828 -11.25320053100586 35.18870544433594 -0.16541898250579834 11.51350212097168 1.6404798030853271 -1.2297298734864626e-09 1.7766599302859731e-09 -7.590349460073753e-10 -2.131839815788794e-09 3.052649910628702e-09 -1.3003799148592066e-09 -1.2297298734864626e-09 1.7766699222931948e-09 -7.590669759416357e-10 7.730909824371338 5.474879741668701 0.4173140823841095 -1.2297298734864626e-09 1.7766599302859731e-09 -7.59038942810264e-10 2.9055399894714355 0.9651829600334167 0.10290199518203735 -1.2297199925015434e-09 1.7766599302859731e-09 -7.590399975221374e-10 10.27859878540039 0.73180091381073 0.025912316516041756 -1.2297298734864626e-09 1.7766699222931948e-09 -7.590369444088196e-10 2.221669912338257 -0.733487069606781 -0.208919957280159 1.127099986692609e-13 -1.6207500313167187e-16 1.3402198459095543e-13 -48.65370559692383 40.134796142578125 -34.61050033569336 15.773301124572754 -8.478080749511719 -29.195999145507812 0.004564119968563318 1.9456498622894287 -0.2735470235347748 -9.828798885891388e-10 -2.2074098104951645e-09 -7.039899774241576e-10 -1.6987798945322652e-09 -3.814239590838042e-09 -1.214769951296546e-09 -9.828899916186629e-10 -2.207399818487943e-09 -7.03979985416936e-10 -7.730909824371338 5.474879741668701 -0.4173140823841095 -9.828809988121634e-10 -2.2074098104951645e-09 -7.039899774241576e-10 -2.9055399894714355 0.9651829600334167 -0.10290199518203735 -9.828859948157742e-10 -2.2074098104951645e-09 -7.039920313367531e-10 -10.27859878540039 0.73180091381073 -0.025912316516041756 -9.828740044071083e-10 -2.207399818487943e-09 -7.039989147195058e-10 -2.221669912338257 -0.733487069606781 0.208919957280159 -2.0321699480147914e-16 0.0 -3.8825099822884138e-19 -55.71979904174805 -56.23560333251953 -62.33029556274414 -4.411109447479248 79.79181671142578 5.718560218811035 -8.784099578857422 -8.8397798538208 -26.34819793701172 2.0321699480147914e-16 0.0 3.8825099822884138e-19 14.811098098754883 7.882709980010986 0.3889671564102173 0.01596209779381752 41.36759567260742 -2.518789768218994 -2.2566399574279785 4.4824299812316895 27.372398376464844
-4.384399975471487 59.0182029575978 15.910200119168671 1.6685998439788818 16.333099365234375 13.347999572753906 -3.125769853591919 14.842000961303711 -1.7010598182678223 2.331559896469116 -13.349699974060059 -0.22398802638053894 -6.846859455108643 13.53969955444336 -8.289839744567871 8.844039916992188 -29.343198776245117 -13.95829963684082 -0.0 0.0 -0.0 -0.0 0.0 -0.0 9.162559355983466e-14 -1.0789200072637908e-13 2.7283199571098704e-13 51.46519470214844 33.7599983215332 9.360503196716309 -18.424598693847656 -11.150399208068848 34.97999572753906 -0.16181600093841553 11.391398429870605 1.6226000785827637 -1.2311699437717039e-09 2.629330086989512e-09 -8.003689377922285e-10 -2.135029930627752e-09 4.52632997749447e-09 -1.3712999624715394e-09 -1.2311699437717039e-09 2.6293398569521287e-09 -8.003970264347515e-10 7.730909824371338 5.474879741668701 0.4173140823841095 -1.2311699437717039e-09 2.629330086989512e-09 -8.003739893069906e-10 2.9055399894714355 0.9651829600334167 0.10290199518203735 -1.2311600627867847e-09 2.629330086989512e-09 -8.003709361936728e-10 10.27859878540039 0.73180091381073 0.025912316516041756 -1.2311699437717039e-09 2.629330086989512e-09 -8.003659957012133e-10 2.221669912338257 -0.733487069606781 -0.208919957280159 9.166489588858726e-14 -1.078869998438585e-13 2.726199799761575e-13 -50.31109619140625 38.86110305786133 -33.54240417480469 15.533498764038086 -8.261119842529297 -28.693496704101562 0.004029999952763319 1.7592300176620483 -0.24733297526836395 -1.596999976705149e-09 -3.509899704212671e-09 -1.0283499607410818e-09 -2.7610298491964613e-09 -6.065319801962232e-09 -1.7739598678900848e-09 -1.5970098576900682e-09 -3.5098899342500545e-09 -1.0283299767266385e-09 -7.730909824371338 5.474879741668701 -0.4173140823841095 -1.596999976705149e-09 -3.5098899342500545e-09 -1.0283399687338601e-09 -2.9055399894714355 0.9651829600334167 -0.10290199518203735 -1.5970098576900682e-09 -3.5098899342500545e-09 -1.0283499607410818e-09 -10.27859878540039 0.73180091381073 -0.025912316516041756 -1.596999976705149e-09 -3.5098899342500545e-09 -1.0283599527483034e-09 -2.221669912338257 -0.733487069606781 0.208919957280159 -2.0321699480147914e-16 0.0 -3.8825099822884138e-19 -50.75709915161133 -56.03010177612305 -59.17599868774414 -4.1468095779418945 79.15581512451172 5.366179466247559 -8.875889778137207 -9.294571876525879 -26.111398696899414 2.0321699480147914e-16 0.0 3.8825099822884138e-19 15.977401733398438 3.006810188293457 -0.009900114499032497 0.288769006729126 51.59060287475586 -2.7051196098327637 -2.006470203399658 7.14955997467041 17.441699981689453
